<svg xmlns="http://www.w3.org/2000/svg" width="960" height="340" viewBox="0 0 960 340" role="img" aria-labelledby="title desc">
<title id="title">REPOT — Move features, not entire codebases.</title><desc id="desc">Concept illustration: a highlighted feature module moves between two codebases. Not a product recording or a verified transfer.</desc>
<defs><pattern id="dots" width="20" height="20" patternUnits="userSpaceOnUse"><circle cx="1" cy="1" r=".75" fill="#343c2c" opacity=".6"/></pattern><linearGradient id="fade" x2="1" y2="1"><stop stop-color="#25331a"/><stop offset="1" stop-color="#10120f"/></linearGradient></defs>
<style>
text{font-family:Arial,Helvetica,sans-serif}
.mono{font-family:'Courier New',monospace}
.float-a{animation:assemble-a 11s ease-in-out infinite}
.float-b{animation:assemble-b 11s ease-in-out infinite}
.float-c{animation:assemble-c 11s ease-in-out infinite}
@keyframes assemble-a{0%,12%,78%,100%{transform:translate(0,0)}35%,50%{transform:translate(20px,-24px)}}
@keyframes assemble-b{0%,16%,82%,100%{transform:translate(0,0)}38%,56%{transform:translate(-20px,14px)}}
@keyframes assemble-c{0%,20%,88%,100%{transform:translate(0,0)}42%,60%{transform:translate(16px,22px)}}
.signal{stroke-dasharray:7 180;animation:signal 7s linear infinite}
@keyframes signal{to{stroke-dashoffset:-374}}
.orbit{transform-origin:240px 139px;animation:orbit 26s linear infinite}
.orbit-slow{transform-origin:240px 139px;animation:orbit 36s linear infinite reverse}
@keyframes orbit{to{transform:rotate(360deg)}}
.transfer{animation:transfer 12s ease-in-out infinite}
@keyframes transfer{0%,12%{transform:translate(0,0);opacity:1}45%{transform:translate(124px,-54px);opacity:1}72%,84%{transform:translate(250px,18px);opacity:1}88%,92%{transform:translate(250px,18px);opacity:0}94%{transform:translate(0,0);opacity:0}100%{transform:translate(0,0);opacity:1}}
.curve{stroke-dasharray:700;animation:curve 10s ease-in-out infinite}
@keyframes curve{0%,100%{stroke-dashoffset:0;opacity:1}45%{stroke-dashoffset:0;opacity:1}65%{stroke-dashoffset:700;opacity:.2}80%{stroke-dashoffset:0;opacity:1}}
@media(prefers-reduced-motion:reduce){*{animation:none!important}}
</style>
<rect x="0.5" y="0.5" width="959" height="339" rx="8" fill="#10120f" stroke="#343c2c" />
<rect x="460.79999999999995" y="58" width="498.20000000000005" height="236" rx="0" fill="url(#dots)" stroke="none" /><text x="32" y="38" font-size="12" fill="#c6f36b" font-weight="400" class="mono" letter-spacing="1.5" >01 / CURRENT BUILD</text><text x="30" y="132" font-size="86" fill="#eeeade" font-weight="700" letter-spacing="-3" >REPOT</text><text x="34" y="184" font-size="29" fill="#eeeade" font-weight="400" >Move features,</text><text x="34" y="222" font-size="29" fill="#eeeade" font-weight="400" >not entire codebases.</text><g transform="translate(548,49)"><path d="M22 104C122 -60 252 -66 329 55" fill="none" stroke="#4b6033" stroke-width="1" stroke-dasharray="3 5"/><path d="M22 104C122 -60 252 -66 329 55" fill="none" stroke="#c6f36b" stroke-width="2" class="signal"/><g transform="translate(0,70)"><path d="M0 0L10.75 -7.000000000000001H35.75L25 0Z" fill="#2d3723" stroke="#62734c" stroke-width=".8"/><path d="M25 0L35.75 -7.000000000000001V18.0L25 25Z" fill="#161d12" stroke="#62734c" stroke-width=".8"/><rect x="0" y="0" width="25" height="25" rx="0" fill="#20271a" stroke="#62734c" stroke-width=".8"/><path d="M5 19H20" fill="none" stroke="#465337" stroke-width="0.7" /></g><g transform="translate(29,70)"><path d="M0 0L10.75 -7.000000000000001H35.75L25 0Z" fill="#2d3723" stroke="#62734c" stroke-width=".8"/><path d="M25 0L35.75 -7.000000000000001V18.0L25 25Z" fill="#161d12" stroke="#62734c" stroke-width=".8"/><rect x="0" y="0" width="25" height="25" rx="0" fill="#20271a" stroke="#62734c" stroke-width=".8"/><path d="M5 19H20" fill="none" stroke="#465337" stroke-width="0.7" /></g><g transform="translate(58,70)"><path d="M0 0L10.75 -7.000000000000001H35.75L25 0Z" fill="#2d3723" stroke="#62734c" stroke-width=".8"/><path d="M25 0L35.75 -7.000000000000001V18.0L25 25Z" fill="#161d12" stroke="#62734c" stroke-width=".8"/><rect x="0" y="0" width="25" height="25" rx="0" fill="#20271a" stroke="#62734c" stroke-width=".8"/><path d="M5 19H20" fill="none" stroke="#465337" stroke-width="0.7" /></g><g transform="translate(0,99)"><path d="M0 0L10.75 -7.000000000000001H35.75L25 0Z" fill="#2d3723" stroke="#62734c" stroke-width=".8"/><path d="M25 0L35.75 -7.000000000000001V18.0L25 25Z" fill="#161d12" stroke="#62734c" stroke-width=".8"/><rect x="0" y="0" width="25" height="25" rx="0" fill="#20271a" stroke="#62734c" stroke-width=".8"/><path d="M5 19H20" fill="none" stroke="#465337" stroke-width="0.7" /></g><g transform="translate(58,99)"><path d="M0 0L10.75 -7.000000000000001H35.75L25 0Z" fill="#2d3723" stroke="#62734c" stroke-width=".8"/><path d="M25 0L35.75 -7.000000000000001V18.0L25 25Z" fill="#161d12" stroke="#62734c" stroke-width=".8"/><rect x="0" y="0" width="25" height="25" rx="0" fill="#20271a" stroke="#62734c" stroke-width=".8"/><path d="M5 19H20" fill="none" stroke="#465337" stroke-width="0.7" /></g><g transform="translate(0,128)"><path d="M0 0L10.75 -7.000000000000001H35.75L25 0Z" fill="#2d3723" stroke="#62734c" stroke-width=".8"/><path d="M25 0L35.75 -7.000000000000001V18.0L25 25Z" fill="#161d12" stroke="#62734c" stroke-width=".8"/><rect x="0" y="0" width="25" height="25" rx="0" fill="#20271a" stroke="#62734c" stroke-width=".8"/><path d="M5 19H20" fill="none" stroke="#465337" stroke-width="0.7" /></g><g transform="translate(29,128)"><path d="M0 0L10.75 -7.000000000000001H35.75L25 0Z" fill="#2d3723" stroke="#62734c" stroke-width=".8"/><path d="M25 0L35.75 -7.000000000000001V18.0L25 25Z" fill="#161d12" stroke="#62734c" stroke-width=".8"/><rect x="0" y="0" width="25" height="25" rx="0" fill="#20271a" stroke="#62734c" stroke-width=".8"/><path d="M5 19H20" fill="none" stroke="#465337" stroke-width="0.7" /></g><g transform="translate(58,128)"><path d="M0 0L10.75 -7.000000000000001H35.75L25 0Z" fill="#2d3723" stroke="#62734c" stroke-width=".8"/><path d="M25 0L35.75 -7.000000000000001V18.0L25 25Z" fill="#161d12" stroke="#62734c" stroke-width=".8"/><rect x="0" y="0" width="25" height="25" rx="0" fill="#20271a" stroke="#62734c" stroke-width=".8"/><path d="M5 19H20" fill="none" stroke="#465337" stroke-width="0.7" /></g><g transform="translate(250,88)"><path d="M0 0L10.75 -7.000000000000001H35.75L25 0Z" fill="#151a12" stroke="#343c2c" stroke-width=".8"/><path d="M25 0L35.75 -7.000000000000001V18.0L25 25Z" fill="#10170c" stroke="#343c2c" stroke-width=".8"/><rect x="0" y="0" width="25" height="25" rx="0" fill="#10120f" stroke="#343c2c" stroke-width=".8"/></g><g transform="translate(279,88)"><path d="M0 0L10.75 -7.000000000000001H35.75L25 0Z" fill="#151a12" stroke="#343c2c" stroke-width=".8"/><path d="M25 0L35.75 -7.000000000000001V18.0L25 25Z" fill="#10170c" stroke="#343c2c" stroke-width=".8"/><rect x="0" y="0" width="25" height="25" rx="0" fill="#10120f" stroke="#343c2c" stroke-width=".8"/></g><g transform="translate(308,88)"><path d="M0 0L10.75 -7.000000000000001H35.75L25 0Z" fill="#151a12" stroke="#343c2c" stroke-width=".8"/><path d="M25 0L35.75 -7.000000000000001V18.0L25 25Z" fill="#10170c" stroke="#343c2c" stroke-width=".8"/><rect x="0" y="0" width="25" height="25" rx="0" fill="#10120f" stroke="#343c2c" stroke-width=".8"/></g><g transform="translate(250,117)"><path d="M0 0L10.75 -7.000000000000001H35.75L25 0Z" fill="#151a12" stroke="#343c2c" stroke-width=".8"/><path d="M25 0L35.75 -7.000000000000001V18.0L25 25Z" fill="#10170c" stroke="#343c2c" stroke-width=".8"/><rect x="0" y="0" width="25" height="25" rx="0" fill="#10120f" stroke="#343c2c" stroke-width=".8"/></g><g transform="translate(308,117)"><path d="M0 0L10.75 -7.000000000000001H35.75L25 0Z" fill="#151a12" stroke="#343c2c" stroke-width=".8"/><path d="M25 0L35.75 -7.000000000000001V18.0L25 25Z" fill="#10170c" stroke="#343c2c" stroke-width=".8"/><rect x="0" y="0" width="25" height="25" rx="0" fill="#10120f" stroke="#343c2c" stroke-width=".8"/></g><g transform="translate(250,146)"><path d="M0 0L10.75 -7.000000000000001H35.75L25 0Z" fill="#151a12" stroke="#343c2c" stroke-width=".8"/><path d="M25 0L35.75 -7.000000000000001V18.0L25 25Z" fill="#10170c" stroke="#343c2c" stroke-width=".8"/><rect x="0" y="0" width="25" height="25" rx="0" fill="#10120f" stroke="#343c2c" stroke-width=".8"/></g><g transform="translate(279,146)"><path d="M0 0L10.75 -7.000000000000001H35.75L25 0Z" fill="#151a12" stroke="#343c2c" stroke-width=".8"/><path d="M25 0L35.75 -7.000000000000001V18.0L25 25Z" fill="#10170c" stroke="#343c2c" stroke-width=".8"/><rect x="0" y="0" width="25" height="25" rx="0" fill="#10120f" stroke="#343c2c" stroke-width=".8"/></g><g transform="translate(308,146)"><path d="M0 0L10.75 -7.000000000000001H35.75L25 0Z" fill="#151a12" stroke="#343c2c" stroke-width=".8"/><path d="M25 0L35.75 -7.000000000000001V18.0L25 25Z" fill="#10170c" stroke="#343c2c" stroke-width=".8"/><rect x="0" y="0" width="25" height="25" rx="0" fill="#10120f" stroke="#343c2c" stroke-width=".8"/></g><g transform="translate(29,99)"><g class="transfer"><g transform="translate(0,0)"><path d="M0 0L10.75 -7.000000000000001H35.75L25 0Z" fill="#e0ffa7" stroke="#d0f692" stroke-width=".8"/><path d="M25 0L35.75 -7.000000000000001V18.0L25 25Z" fill="#819f48" stroke="#d0f692" stroke-width=".8"/><rect x="0" y="0" width="25" height="25" rx="0" fill="#c6f36b" stroke="#d0f692" stroke-width=".8"/><path d="M5 19H20" fill="none" stroke="#161e0d" stroke-width="0.7" /></g></g></g><text x="0" y="194" font-size="12" fill="#9bA18f" font-weight="400" class="mono" letter-spacing="1" >SOURCE</text><text x="250" y="212" font-size="12" fill="#9bA18f" font-weight="400" class="mono" letter-spacing="1" >DESTINATION</text></g><path d="M32 282H928" fill="none" stroke="#343c2c" stroke-width="1" /><text x="34" y="313" font-size="12" fill="#9bA18f" font-weight="400" class="mono" letter-spacing="1" >DEVELOPER TOOLS</text><text x="309" y="313" font-size="11" fill="#9bA18f" font-weight="400" class="mono" >SOURCE → FEATURE → YOUR CODEBASE</text><text x="928" y="313" font-size="12" fill="#c6f36b" font-weight="400" class="mono" letter-spacing="1" text-anchor="end" >MCP / BETA</text>
</svg>
